<svg width="20" height="20" viewBox="0 0 20 20" fill="none" xmlns="http://www.w3.org/2000/svg">
<g clip-path="url(#clip0_2_3206)">
<path d="M6.66669 13.3334L13.3334 6.66675" stroke="#B5B9BD" stroke-width="1.5" stroke-linecap="round" stroke-linejoin="round"/>
<path d="M5.93417 16.7675L3.23167 14.065C2.7631 13.5961 2.49992 12.9604 2.5 12.2975V7.7025C2.5 7.03917 2.76333 6.40333 3.2325 5.935L5.935 3.2325C6.16698 3.00019 6.44251 2.81591 6.7458 2.69022C7.04909 2.56453 7.37419 2.49989 7.7025 2.5H12.2975C12.9608 2.5 13.5967 2.76333 14.065 3.2325L16.7683 5.93583C17.2369 6.4047 17.5001 7.04047 17.5 7.70333V12.2975C17.5 12.9608 17.2367 13.5958 16.7683 14.065L14.0658 16.7683C13.5966 17.2368 12.9606 17.4999 12.2975 17.5H7.7025C7.37408 17.5 7.04887 17.4354 6.74546 17.3097C6.44204 17.184 6.16636 16.9998 5.93417 16.7675Z" stroke="#B5B9BD" stroke-width="1.5" stroke-linecap="round" stroke-linejoin="round"/>
</g>
<defs>
<clipPath id="clip0_2_3206">
<rect width="20" height="20" fill="white"/>
</clipPath>
</defs>
</svg>
