<svg width="110" height="125" viewBox="0 0 110 125" fill="none" xmlns="http://www.w3.org/2000/svg">
<rect width="110" height="110" rx="55" fill="#2A85FF" fill-opacity="0.02"/>
<rect x="0.5" y="0.5" width="109" height="109" rx="54.5" stroke="#2A85FF" stroke-opacity="0.5" stroke-dasharray="6 6"/>
<circle cx="54.9912" cy="52" r="28.5" fill="#212426" stroke="#212426" stroke-width="3"/>
<g clip-path="url(#clip0_2_8619)">
<path d="M59.3012 39.6433L61.1695 41.5116C61.482 41.8242 61.9059 41.9999 62.3479 42H66.6579C67.5419 42 68.3898 42.3511 69.0149 42.9763C69.64 43.6014 69.9912 44.4492 69.9912 45.3333V60.3333C69.9912 61.2173 69.64 62.0652 69.0149 62.6903C68.3898 63.3154 67.5419 63.6666 66.6579 63.6666H43.3245C42.4405 63.6666 41.5926 63.3154 40.9675 62.6903C40.3424 62.0652 39.9912 61.2173 39.9912 60.3333V45.3333C39.9912 44.4492 40.3424 43.6014 40.9675 42.9763C41.5926 42.3511 42.4405 42 43.3245 42H47.6345C48.0765 41.9999 48.5004 41.8242 48.8129 41.5116L50.6812 39.6433C51.3062 39.0181 52.1539 38.6668 53.0379 38.6666H56.9445C57.8285 38.6668 58.6762 39.0181 59.3012 39.6433Z" fill="white"/>
<path d="M54.9911 58.6667C58.673 58.6667 61.6578 55.6819 61.6578 52C61.6578 48.3181 58.673 45.3334 54.9911 45.3334C51.3092 45.3334 48.3245 48.3181 48.3245 52C48.3245 55.6819 51.3092 58.6667 54.9911 58.6667Z" stroke="#333333" stroke-width="1.5" stroke-linecap="round" stroke-linejoin="round"/>
<path d="M65.908 47.4166C65.908 47.5155 65.8786 47.6122 65.8237 47.6944C65.7687 47.7766 65.6907 47.8407 65.5993 47.8786C65.5079 47.9164 65.4074 47.9263 65.3104 47.907C65.2134 47.8877 65.1243 47.8401 65.0544 47.7702C64.9845 47.7003 64.9369 47.6112 64.9176 47.5142C64.8983 47.4172 64.9082 47.3166 64.946 47.2253C64.9839 47.1339 65.048 47.0558 65.1302 47.0009C65.2124 46.946 65.3091 46.9166 65.408 46.9166C65.5406 46.9166 65.6677 46.9693 65.7615 47.0631C65.8553 47.1568 65.908 47.284 65.908 47.4166Z" fill="#333333"/>
<path d="M52.4912 52C52.4912 51.337 52.7546 50.7011 53.2234 50.2322C53.6923 49.7634 54.3282 49.5 54.9912 49.5" stroke="#333333" stroke-width="1.5" stroke-linecap="round" stroke-linejoin="round"/>
</g>
<defs>
<clipPath id="clip0_2_8619">
<rect width="40" height="40" fill="white" transform="translate(34.9912 32)"/>
</clipPath>
</defs>
</svg>
