<svg width="16" height="16" viewBox="0 0 16 16" fill="none" xmlns="http://www.w3.org/2000/svg">
<path d="M3.46323 2.25105C3.1285 1.91632 2.58579 1.91632 2.25105 2.25105C1.91632 2.58579 1.91632 3.1285 2.25105 3.46323L6.78783 8.00001L2.25108 12.5368C1.91634 12.8715 1.91634 13.4142 2.25108 13.7489C2.58581 14.0837 3.12852 14.0837 3.46326 13.7489L8.00001 9.21219L12.5368 13.7489C12.8715 14.0837 13.4142 14.0837 13.7489 13.7489C14.0837 13.4142 14.0837 12.8715 13.7489 12.5368L9.21219 8.00001L13.749 3.46323C14.0837 3.1285 14.0837 2.58579 13.749 2.25105C13.4142 1.91632 12.8715 1.91632 12.5368 2.25105L8.00001 6.78783L3.46323 2.25105Z" fill="#FAFBFC"/>
</svg>
