<svg width="78" height="43" viewBox="0 0 78 43" fill="none" xmlns="http://www.w3.org/2000/svg">
<rect x="51.7412" y="3.96474" width="27.6836" height="31.4241" rx="4.75" transform="rotate(20 51.7412 3.96474)" fill="#2B2E30" stroke="#FAFBFC" stroke-width="1.5"/>
<path d="M52.4794 20.2576C52.3887 20.5068 52.4007 20.7818 52.5128 21.0222C52.6249 21.2626 52.8279 21.4486 53.0771 21.5393C53.3263 21.63 53.6013 21.618 53.8417 21.5059C54.0821 21.3938 54.2681 21.1908 54.3588 20.9416C54.4495 20.6924 54.4375 20.4173 54.3254 20.177C54.2133 19.9366 54.0103 19.7506 53.7611 19.6599C53.5119 19.5692 53.2368 19.5812 52.9965 19.6933C52.7561 19.8054 52.5701 20.0083 52.4794 20.2576Z" stroke="#FAFBFC" stroke-width="2" stroke-linecap="round" stroke-linejoin="round"/>
<path d="M59.0572 22.6519C58.9665 22.9011 58.9785 23.1761 59.0906 23.4165C59.2027 23.6569 59.4057 23.8429 59.6549 23.9336C59.9041 24.0243 60.1792 24.0123 60.4196 23.9002C60.6599 23.7881 60.8459 23.5851 60.9366 23.3359C61.0273 23.0867 61.0153 22.8116 60.9032 22.5713C60.7912 22.3309 60.5882 22.1449 60.339 22.0542C60.0897 21.9635 59.8147 21.9755 59.5743 22.0876C59.334 22.1996 59.148 22.4026 59.0572 22.6519Z" stroke="#FAFBFC" stroke-width="2" stroke-linecap="round" stroke-linejoin="round"/>
<path d="M65.6351 25.0459C65.5444 25.2951 65.5564 25.5702 65.6685 25.8105C65.7806 26.0509 65.9835 26.2369 66.2328 26.3276C66.482 26.4183 66.757 26.4063 66.9974 26.2942C67.2378 26.1821 67.4238 25.9792 67.5145 25.7299C67.6052 25.4807 67.5932 25.2057 67.4811 24.9653C67.369 24.7249 67.166 24.5389 66.9168 24.4482C66.6676 24.3575 66.3925 24.3695 66.1522 24.4816C65.9118 24.5937 65.7258 24.7967 65.6351 25.0459Z" stroke="#FAFBFC" stroke-width="2" stroke-linecap="round" stroke-linejoin="round"/>
<rect x="0.244724" y="13.4199" width="27.6836" height="31.4241" rx="4.75" transform="rotate(-20 0.244724 13.4199)" fill="#2B2E30" stroke="#FAFBFC" stroke-width="1.5"/>
<path d="M26.6797 28.2548L27.1931 27.1538C27.3611 26.7933 27.3791 26.3808 27.2431 26.0071C27.107 25.6333 26.8281 25.3289 26.4676 25.1607L24.0093 24.0144C23.5286 23.7904 22.9787 23.7664 22.4803 23.9478C21.982 24.1291 21.5761 24.501 21.3519 24.9816L20.4536 26.9081C19.2629 26.8986 18.0881 26.6333 17.0089 26.1301C15.9298 25.6269 14.9714 24.8975 14.1988 23.9914L15.0971 22.065C15.3212 21.5843 15.3451 21.0343 15.1638 20.536C14.9824 20.0376 14.6105 19.6317 14.1299 19.4075L11.6716 18.2612C11.311 18.0932 10.8986 18.0752 10.5248 18.2112C10.151 18.3473 9.84662 18.6262 9.67847 18.9866L9.16507 20.0876C8.76875 20.9379 8.72593 21.9107 9.046 22.7925C9.59275 24.2989 10.4312 25.6827 11.5133 26.8648C12.5954 28.0468 13.9 29.0039 15.3524 29.6813C16.8048 30.3586 18.3766 30.7429 19.9776 30.8122C21.5787 30.8815 23.1778 30.6344 24.6832 30.085C25.5649 29.7635 26.2829 29.1053 26.6797 28.2548Z" fill="#FAFBFC"/>
<rect x="22.7756" y="1" width="31.9241" height="36.199" rx="5" fill="#1A1C1F" stroke="#FAFBFC" stroke-width="2"/>
<path d="M38.9983 25H44.9983C45.7939 25 46.557 24.6839 47.1196 24.1213C47.6822 23.5587 47.9983 22.7956 47.9983 22V14C47.9983 13.2044 47.6822 12.4413 47.1196 11.8787C46.557 11.3161 45.7939 11 44.9983 11H32.9983C32.2026 11 31.4395 11.3161 30.8769 11.8787C30.3143 12.4413 29.9983 13.2044 29.9983 14V22C29.9983 22.7956 30.3143 23.5587 30.8769 24.1213C31.4395 24.6839 32.2026 25 32.9983 25H34.4983V28L38.9983 25Z" fill="#FAFBFC"/>
</svg>
