<svg width="18" height="12" viewBox="0 0 18 12" fill="none" xmlns="http://www.w3.org/2000/svg">
<path d="M17.394 1.03512L16.824 0.591118C16.636 0.444118 16.362 0.478118 16.215 0.667118L9.825 8.86512C9.678 9.05312 9.419 9.07112 9.248 8.90412L8.821 8.51612C8.65 8.34912 8.39 8.36612 8.243 8.55412L7.792 9.13012C7.645 9.31812 7.664 9.60812 7.835 9.77512L9.41 11.2851C9.581 11.4521 9.84 11.4341 9.987 11.2461L17.47 1.64412C17.616 1.45612 17.582 1.18212 17.394 1.03512ZM12.502 1.03512L11.932 0.591118C11.744 0.444118 11.47 0.478118 11.323 0.667118L4.933 8.86512C4.786 9.05312 4.527 9.07112 4.356 8.90412L1.742 6.34812C1.571 6.18112 1.295 6.18412 1.128 6.35512L0.623003 6.87112C0.456003 7.04212 0.459003 7.31812 0.630003 7.48512L4.517 11.2851C4.688 11.4521 4.947 11.4341 5.094 11.2461L12.577 1.64412C12.724 1.45612 12.69 1.18212 12.502 1.03512Z" fill="#2A85FF"/>
</svg>
