<svg width="20" height="20" viewBox="0 0 20 20" fill="none" xmlns="http://www.w3.org/2000/svg">
<path d="M15.3034 4.69671C15.9998 5.39316 16.5523 6.21996 16.9292 7.1299C17.3061 8.03985 17.5001 9.01513 17.5001 10C17.5001 10.985 17.3061 11.9602 16.9292 12.8702C16.5523 13.7801 15.9998 14.6069 15.3034 15.3034C14.6069 15.9998 13.7801 16.5523 12.8702 16.9292C11.9602 17.3061 10.985 17.5001 10 17.5001C9.01513 17.5001 8.03985 17.3061 7.1299 16.9292C6.21996 16.5523 5.39316 15.9998 4.69671 15.3034C3.29018 13.8968 2.5 11.9892 2.5 10C2.5 8.01091 3.29018 6.10324 4.69671 4.69671C6.10324 3.29018 8.01091 2.5 10 2.5C11.9892 2.5 13.8968 3.29018 15.3034 4.69671Z" stroke="#B5B9BD" stroke-width="1.5" stroke-linecap="round" stroke-linejoin="round"/>
<path d="M10 14.1667C11.3892 14.1667 12.5 13.0559 12.5 11.6667H7.5C7.5 13.0559 8.61083 14.1667 10 14.1667Z" stroke="#B5B9BD" stroke-width="1.5" stroke-linecap="round" stroke-linejoin="round"/>
<path d="M7.08337 7.5V8.33333" stroke="#B5B9BD" stroke-width="1.5" stroke-linecap="round" stroke-linejoin="round"/>
<path d="M12.9166 7.5V8.33333" stroke="#B5B9BD" stroke-width="1.5" stroke-linecap="round" stroke-linejoin="round"/>
</svg>
