<svg width="20" height="20" viewBox="0 0 20 20" fill="none" xmlns="http://www.w3.org/2000/svg">
<path d="M16.6642 17.5H3.33586C2.89383 17.5 2.46991 17.3244 2.15734 17.0118C1.84478 16.6993 1.66919 16.2754 1.66919 15.8333V4.16667C1.66919 3.72464 1.84478 3.30072 2.15734 2.98816C2.46991 2.67559 2.89383 2.5 3.33586 2.5H16.6642C17.1062 2.5 17.5301 2.67559 17.8427 2.98816C18.1553 3.30072 18.3309 3.72464 18.3309 4.16667V15.8333C18.3309 16.2754 18.1553 16.6993 17.8427 17.0118C17.5301 17.3244 17.1062 17.5 16.6642 17.5Z" stroke="#B5B9BD" stroke-width="1.5" stroke-linecap="round" stroke-linejoin="round"/>
<path d="M7.84503 6.32161C8.00421 6.47536 8.13118 6.65927 8.21853 6.86261C8.30588 7.06595 8.35186 7.28465 8.35378 7.50594C8.3557 7.72724 8.31353 7.94671 8.22973 8.15154C8.14593 8.35636 8.02217 8.54245 7.86569 8.69894C7.7092 8.85543 7.52311 8.97918 7.31828 9.06298C7.11346 9.14678 6.89399 9.18895 6.67269 9.18703C6.45139 9.18511 6.23269 9.13913 6.02935 9.05178C5.82601 8.96443 5.64211 8.83746 5.48836 8.67828C5.18476 8.36394 5.01677 7.94294 5.02057 7.50594C5.02437 7.06895 5.19965 6.65093 5.50866 6.34192C5.81768 6.0329 6.2357 5.85762 6.67269 5.85382C7.10969 5.85003 7.53069 6.01802 7.84503 6.32161Z" stroke="#B5B9BD" stroke-width="1.5" stroke-linecap="round" stroke-linejoin="round"/>
<path d="M18.3334 13.3332L14.8175 10.5207C14.7321 10.4523 14.634 10.4014 14.5288 10.3709C14.4237 10.3404 14.3136 10.3309 14.2048 10.343C14.096 10.355 13.9906 10.3884 13.8947 10.4412C13.7988 10.4941 13.7143 10.5652 13.6459 10.6507L10.8659 14.1257C10.7975 14.2112 10.7129 14.2824 10.617 14.3352C10.5211 14.388 10.4158 14.4214 10.307 14.4335C10.1982 14.4456 10.088 14.4361 9.98291 14.4056C9.87776 14.3751 9.77966 14.3242 9.69421 14.2557L8.13754 13.0099C7.96717 12.8736 7.75017 12.8096 7.53313 12.8316C7.31609 12.8536 7.11631 12.9598 6.97671 13.1274L3.33337 17.4999" stroke="#B5B9BD" stroke-width="1.5" stroke-linecap="round" stroke-linejoin="round"/>
</svg>
