<svg width="41" height="40" viewBox="0 0 41 40" fill="none" xmlns="http://www.w3.org/2000/svg">
<rect x="0.5" width="40" height="40" rx="20" fill="#0B0C0D"/>
<path d="M27.398 15.0679H13.2786L14.5281 9.08035L14.8897 7.34742C15.0276 6.68375 15.3902 6.08798 15.9164 5.6607C16.4284 5.2448 17.0785 5 17.7767 5C18.6083 5 19.3589 5.3444 19.8948 5.89806C19.9522 5.95779 20.0211 6.0053 20.0973 6.03776C20.1735 6.07021 20.2555 6.08694 20.3384 6.08693C20.4212 6.08693 20.5032 6.07019 20.5794 6.03772C20.6557 6.00526 20.7245 5.95773 20.7819 5.898C20.9648 5.70903 21.172 5.54523 21.398 5.41091C21.8377 5.14988 22.351 5 22.8999 5C24.2963 5 25.5015 5.97981 25.7869 7.34742L26.1485 9.08035L27.398 15.0679Z" fill="#EFEFEF"/>
<path d="M27.0021 10.0391H13.8448C10.2716 10.0391 7.375 12.9357 7.375 16.5089C7.375 20.082 10.2716 22.9787 13.8448 22.9787H27.0021C30.5752 22.9787 33.4719 20.082 33.4719 16.5089C33.4719 12.9357 30.5752 10.0391 27.0021 10.0391Z" fill="#EFEFEF"/>
<path d="M10.2425 16.511C10.2425 18.2977 10.9669 19.9151 12.1378 21.086C13.308 22.2569 14.9254 22.9813 16.7121 22.9813H13.8451C12.0585 22.9813 10.441 22.2569 9.27015 21.086C8.11062 19.9258 7.38884 18.3273 7.37567 16.5602C7.34894 12.975 10.3364 10.0414 13.9218 10.0414H14.3278L14.5283 9.08035L14.8898 7.34742C15.0322 6.66361 15.405 6.0766 15.9165 5.6607C16.4279 5.2448 17.0786 5 17.7768 5C18.2239 5 18.648 5.09992 19.0276 5.27789C18.8085 5.38031 18.6036 5.50895 18.4169 5.6607C17.8907 6.08798 17.5281 6.68376 17.3903 7.34742L17.1989 8.26447C17.1111 8.68524 17.4323 9.08035 17.8621 9.08035H26.1486L26.349 10.0414H16.7121C13.1394 10.0414 10.2425 12.9378 10.2425 16.511Z" fill="#DBDCDD"/>
<path d="M14.0376 30.0312C14.2168 28.5789 12.9773 28.4259 13.1564 26.9736C13.3356 25.5213 14.5752 25.6743 14.7544 24.222C14.9335 22.7699 13.6939 22.617 13.8731 21.1649C14.0522 19.7127 15.2918 19.8656 15.4709 18.4135C15.6501 16.9614 25.2665 16.8085 25.4457 15.3564L26.6967 16.062C26.9109 17.5093 28.1464 17.3264 28.3606 18.7737C28.5749 20.2211 27.3394 20.404 27.5536 21.8513C27.7679 23.2987 29.0034 23.1158 29.2176 24.5631C29.4319 26.0107 28.1964 26.1935 28.4107 27.6411C28.6249 29.0886 29.8605 28.9057 30.0747 30.3533L14.0376 30.0312Z" fill="#3D3842"/>
<path d="M27.3793 22.0053C26.5643 22.0053 25.9011 21.3422 25.9011 20.5271C25.9011 20.4443 25.934 20.3649 25.9926 20.3063C26.0511 20.2477 26.1306 20.2148 26.2134 20.2148C26.2962 20.2148 26.3756 20.2477 26.4341 20.3063C26.4927 20.3649 26.5256 20.4443 26.5256 20.5271C26.5256 20.9979 26.9086 21.3808 27.3793 21.3808C27.8501 21.3808 28.2331 20.9978 28.2331 20.5271C28.2331 20.4443 28.266 20.3649 28.3245 20.3063C28.3831 20.2477 28.4625 20.2148 28.5453 20.2148C28.6281 20.2148 28.7075 20.2477 28.7661 20.3063C28.8246 20.3649 28.8575 20.4443 28.8575 20.5271C28.8575 21.3422 28.1945 22.0053 27.3793 22.0053Z" fill="#FFE861"/>
<path d="M21.4828 14.1507V19.3386H14.5348L14.5342 16.14C14.5342 16.1194 14.5342 16.0988 14.5348 16.0782V16.0763C14.5354 16.0719 14.5354 16.0669 14.5354 16.0626C14.576 14.7755 15.6326 13.7451 16.9291 13.7451H20.8708L21.4828 14.1507Z" fill="#3D3842"/>
<path d="M26.6978 16.1394V19.3386H21.4828V14.4327L22.2884 13.7451H24.3036C25.6 13.7451 26.656 14.7761 26.6966 16.0626C26.6966 16.0669 26.6966 16.0713 26.6972 16.0757V16.0775C26.6978 16.0982 26.6978 16.1188 26.6978 16.1394Z" fill="#656368"/>
<path d="M29.4064 17.9386C29.4064 18.4566 29.197 18.9247 28.8576 19.264C28.5183 19.6034 28.0501 19.8128 27.5322 19.8128H22.1665V16.0645H27.5322C28.5674 16.0645 29.4064 16.9034 29.4064 17.9386Z" fill="#FFCFC2"/>
<path d="M27.5319 16.9775H25.6694V18.895H27.5319C28.0605 18.895 28.4906 18.4649 28.4906 17.9363C28.4906 17.4076 28.0606 16.9775 27.5319 16.9775Z" fill="#EFAC9C"/>
<path d="M23.479 30.4132H17.7534L18.3314 26.2757L18.435 25.5334L18.5391 24.79H22.6933L22.9028 26.2877L23.479 30.4132Z" fill="#FFCFC2"/>
<path d="M13.7001 16.0645H16.0673V19.8129H13.7001C12.6649 19.8129 11.8259 18.9739 11.8259 17.9387C11.8259 17.4208 12.0354 16.9527 12.3747 16.6133C12.7141 16.2739 13.1822 16.0645 13.7001 16.0645Z" fill="#F4BAAE"/>
<path d="M15.5626 16.9775H13.7002C13.1715 16.9775 12.7415 17.4076 12.7415 17.9363C12.7415 18.4649 13.1715 18.895 13.7002 18.895H15.5626V16.9775Z" fill="#EFAC9C"/>
<path d="M26.6978 16.0626L26.6972 16.0757V16.0775L26.5254 19.3386L26.4948 19.9206C26.33 23.0467 23.7465 25.4972 20.616 25.4972C17.4855 25.4972 14.902 23.0467 14.7371 19.9206L14.7065 19.3386L14.5348 16.0782V16.0763L14.5342 16.0626H14.5354C14.6116 16.0513 17.9039 15.578 20.8708 13.7451H22.2883C23.1064 14.4814 24.7244 15.7154 26.6965 16.0626H26.6978Z" fill="#FFCFC2"/>
<path d="M22.848 25.8944L21.0283 26.0736C20.3551 26.1398 19.8249 26.675 19.7662 27.3482L19.512 30.2077L18.9494 30.4137H17.7535L18.4947 25.1057C16.3902 24.2926 14.8634 22.3036 14.7379 19.9231L14.5349 16.0651C14.5661 16.0607 15.4698 15.9314 16.7481 15.5518L16.9791 19.9231C17.124 22.6671 19.1317 24.8902 21.737 25.3929C22.0783 25.3276 22.4129 25.2315 22.7368 25.1057L22.848 25.8944Z" fill="#F4BAAE"/>
<path d="M30.9899 31.1785C28.1978 33.5622 24.5746 35.0016 20.616 35.0016C19.4327 35.0016 18.2792 34.873 17.1695 34.6288C15.8294 34.3347 15.7257 31.8911 14.5349 31.2835C14.1008 31.0618 12.5034 32.8016 12.0938 32.5424C12.0938 32.5418 12.0931 32.5418 12.0931 32.5418C11.4444 32.1322 10.8258 31.6766 10.2422 31.1785L10.2934 31.0124C10.4593 30.4711 10.768 29.9844 11.187 29.6036C11.554 29.2689 11.9947 29.0254 12.4735 28.893C12.7426 28.8186 13.0249 28.7793 13.314 28.7793H27.9181C29.3063 28.7793 30.5315 29.6854 30.9387 31.0124L30.9899 31.1785Z" fill="#EFEFEF"/>
<path d="M18.3673 28.7793C16.9791 28.7793 15.7538 29.6854 15.3467 31.0124L14.5349 32.7433C13.6956 32.3953 12.8538 33.0221 12.0938 32.5423C11.4448 32.1325 10.826 31.6768 10.2422 31.1785L10.2934 31.0124C10.7006 29.6854 11.9258 28.7793 13.314 28.7793H18.3673Z" fill="#DBDCDD"/>
<path d="M22.5689 17.9489C22.4663 17.9492 22.3647 17.9291 22.27 17.8899C22.1752 17.8506 22.0892 17.793 22.0169 17.7203C21.8695 17.5729 21.7883 17.3768 21.7883 17.1683C21.7883 16.9599 21.8695 16.7638 22.017 16.6164C22.4075 16.2258 22.9268 16.0107 23.4791 16.0107C24.0314 16.0107 24.5507 16.2258 24.9412 16.6164C25.0887 16.7638 25.1698 16.9598 25.1698 17.1683C25.1698 17.3769 25.0887 17.5729 24.9412 17.7203C24.7938 17.8678 24.5978 17.9489 24.3892 17.9489H22.5689ZM16.8432 17.9489C16.7407 17.9492 16.6391 17.9291 16.5443 17.8899C16.4496 17.8506 16.3636 17.793 16.2912 17.7203C16.1438 17.5729 16.0626 17.3768 16.0626 17.1683C16.0626 16.9599 16.1438 16.7638 16.2913 16.6164C16.6818 16.2258 17.2011 16.0107 17.7534 16.0107C18.3057 16.0107 18.825 16.2258 19.2156 16.6164C19.363 16.7638 19.4442 16.9598 19.4442 17.1683C19.4442 17.3769 19.363 17.5729 19.2155 17.7203C19.0681 17.8678 18.8721 17.9489 18.6636 17.9489H16.8432Z" fill="#AAD6F2"/>
<path d="M22.492 18.3737C22.3895 18.374 22.2879 18.3539 22.1931 18.3147C22.0984 18.2754 22.0124 18.2178 21.94 18.1451C21.7926 17.9977 21.7114 17.8016 21.7114 17.5931C21.7114 17.3847 21.7926 17.1886 21.9401 17.0412C22.3306 16.6506 22.8499 16.4355 23.4022 16.4355C23.9545 16.4355 24.4738 16.6506 24.8644 17.0412C25.0118 17.1886 25.093 17.3846 25.093 17.5931C25.093 17.8017 25.0118 17.9977 24.8643 18.1451C24.7169 18.2926 24.5209 18.3737 24.3124 18.3737H22.492Z" fill="white"/>
<path d="M23.129 18.3729H22.492C22.2834 18.3729 22.0874 18.2917 21.94 18.1443C21.7926 17.9969 21.7114 17.8008 21.7114 17.5923C21.7114 17.3837 21.7926 17.1876 21.94 17.0402C22.2603 16.7199 22.6681 16.5169 23.109 16.4551C22.862 16.709 22.7242 17.0494 22.725 17.4037C22.725 17.7827 22.8792 18.1256 23.129 18.3729Z" fill="#EFEFEF"/>
<path d="M16.9198 18.3737C16.8172 18.374 16.7156 18.3539 16.6209 18.3147C16.5261 18.2754 16.4401 18.2178 16.3678 18.1451C16.2203 17.9977 16.1392 17.8016 16.1392 17.5931C16.1392 17.3847 16.2203 17.1886 16.3678 17.0412C16.7583 16.6506 17.2776 16.4355 17.8299 16.4355C18.3822 16.4355 18.9015 16.6506 19.2921 17.0412C19.4395 17.1886 19.5207 17.3846 19.5207 17.5931C19.5207 17.8017 19.4395 17.9977 19.292 18.1451C19.1447 18.2926 18.9486 18.3737 18.7401 18.3737H16.9198Z" fill="white"/>
<path d="M18.1339 18.249C18.5133 18.249 18.8209 17.9414 18.8209 17.562C18.8209 17.1826 18.5133 16.875 18.1339 16.875C17.7545 16.875 17.4469 17.1826 17.4469 17.562C17.4469 17.9414 17.7545 18.249 18.1339 18.249Z" fill="#B1C95B"/>
<path d="M18.3954 16.9263C18.3124 16.8924 18.2236 16.8749 18.134 16.875C17.7548 16.875 17.4469 17.1824 17.4469 17.5621C17.4469 17.9413 17.7548 18.2487 18.134 18.2487C18.2267 18.2487 18.3147 18.2304 18.3954 18.1974C18.1456 18.0947 17.9696 17.8491 17.9696 17.5621C17.9696 17.2752 18.1456 17.029 18.3954 16.9263Z" fill="#A1B746"/>
<path d="M23.0984 18.249C23.4778 18.249 23.7854 17.9414 23.7854 17.562C23.7854 17.1826 23.4778 16.875 23.0984 16.875C22.719 16.875 22.4114 17.1826 22.4114 17.562C22.4114 17.9414 22.719 18.249 23.0984 18.249Z" fill="#B1C95B"/>
<path d="M23.3598 16.9263C23.2769 16.8924 23.1881 16.8749 23.0985 16.875C22.7193 16.875 22.4114 17.1824 22.4114 17.5621C22.4114 17.9413 22.7193 18.2487 23.0985 18.2487C23.1912 18.2487 23.2792 18.2304 23.3598 18.1974C23.11 18.0947 22.9341 17.8491 22.9341 17.5621C22.9341 17.2752 23.11 17.029 23.3598 16.9263Z" fill="#A1B746"/>
<path d="M20.6162 20.3205C20.1885 20.3205 19.8481 19.9624 19.8696 19.5353L20.0536 15.8907C20.061 15.7466 20.1236 15.6107 20.2282 15.5113C20.3329 15.4119 20.4718 15.3564 20.6162 15.3564C20.7606 15.3564 20.8994 15.4119 21.0041 15.5113C21.1088 15.6107 21.1713 15.7466 21.1788 15.8907L21.3628 19.5353C21.3843 19.9624 21.0438 20.3205 20.6162 20.3205Z" fill="#F4BAAE"/>
<path d="M19.7058 20.8789C19.8256 20.8789 19.9455 20.9246 20.0369 21.0161C20.1916 21.1707 20.3972 21.2559 20.6159 21.2559C20.8346 21.2559 21.0402 21.1707 21.1948 21.0161C21.2827 20.9283 21.4018 20.8789 21.526 20.8789C21.6502 20.8789 21.7693 20.9283 21.8571 21.0161C21.945 21.1039 21.9943 21.2231 21.9943 21.3473C21.9943 21.4715 21.945 21.5906 21.8571 21.6784C21.5255 22.01 21.0847 22.1926 20.6158 22.1926C20.1469 22.1926 19.7061 22.01 19.3745 21.6784C19.309 21.6129 19.2644 21.5295 19.2463 21.4386C19.2282 21.3477 19.2375 21.2536 19.273 21.168C19.3084 21.0824 19.3685 21.0093 19.4455 20.9578C19.5226 20.9063 19.6131 20.8789 19.7058 20.8789Z" fill="#F74848"/>
<path d="M17.5567 18.3729H16.9198C16.7112 18.3729 16.5151 18.2917 16.3677 18.1443C16.2203 17.9969 16.1392 17.8008 16.1392 17.5923C16.1392 17.3837 16.2203 17.1876 16.3677 17.0402C16.6881 16.7199 17.0959 16.5169 17.5367 16.4551C17.2898 16.709 17.1519 17.0494 17.1527 17.4037C17.1527 17.7827 17.3069 18.1256 17.5567 18.3729Z" fill="#EFEFEF"/>
<path d="M24.7672 15.4332C24.7484 15.5144 24.7072 15.5918 24.6435 15.6549C24.6001 15.6984 24.5485 15.733 24.4917 15.7566C24.4349 15.7802 24.374 15.7923 24.3125 15.7923C24.251 15.7923 24.1902 15.7802 24.1334 15.7566C24.0766 15.733 24.025 15.6984 23.9816 15.6549C23.9057 15.5786 23.8155 15.5181 23.7162 15.477C23.6168 15.4358 23.5102 15.4148 23.4027 15.4151C23.1835 15.4151 22.978 15.5 22.8232 15.6549C22.6408 15.8379 22.3442 15.8379 22.1612 15.6549C21.9782 15.4719 21.9782 15.1753 22.1612 14.9923C22.4447 14.7088 22.8082 14.5346 23.2003 14.4902C23.6444 14.8137 24.1733 15.1484 24.7672 15.4332ZM19.0713 15.6549C19.0279 15.6984 18.9763 15.733 18.9195 15.7566C18.8627 15.7802 18.8018 15.7923 18.7403 15.7923C18.6788 15.7923 18.6179 15.7802 18.5611 15.7566C18.5043 15.733 18.4528 15.6984 18.4093 15.6549C18.3334 15.5786 18.2431 15.518 18.1436 15.4769C18.0441 15.4357 17.9375 15.4147 17.8298 15.4151C17.6113 15.4151 17.4058 15.5 17.2509 15.6549C17.2041 15.7018 17.1479 15.7381 17.0859 15.7617C17.024 15.7852 16.9578 15.7952 16.8917 15.7912C16.8255 15.7872 16.761 15.7692 16.7024 15.7384C16.6437 15.7075 16.5923 15.6646 16.5515 15.6124C16.6158 15.5937 16.6814 15.575 16.7482 15.555C17.3752 15.3683 18.0927 15.1222 18.8415 14.7994C18.9227 14.8562 18.9995 14.9211 19.0713 14.9923C19.1148 15.0358 19.1493 15.0875 19.1729 15.1443C19.1964 15.2012 19.2085 15.2621 19.2085 15.3236C19.2085 15.3851 19.1964 15.4461 19.1729 15.5029C19.1493 15.5597 19.1148 15.6114 19.0713 15.6549Z" fill="#EFAC9C"/>
<path d="M24.7244 19.8608H23.8807C23.7681 19.8608 23.6601 19.816 23.5805 19.7364C23.5009 19.6568 23.4562 19.5488 23.4562 19.4362C23.4562 19.3237 23.5009 19.2157 23.5805 19.1361C23.6601 19.0564 23.7681 19.0117 23.8807 19.0117H24.7244C24.837 19.0117 24.945 19.0564 25.0246 19.1361C25.1042 19.2157 25.149 19.3237 25.149 19.4362C25.149 19.5488 25.1042 19.6568 25.0246 19.7364C24.945 19.816 24.837 19.8608 24.7244 19.8608ZM17.3514 19.8608H16.5077C16.3951 19.8608 16.2871 19.816 16.2075 19.7364C16.1279 19.6568 16.0831 19.5488 16.0831 19.4362C16.0831 19.3237 16.1279 19.2157 16.2075 19.1361C16.2871 19.0564 16.3951 19.0117 16.5077 19.0117H17.3514C17.464 19.0117 17.572 19.0564 17.6516 19.1361C17.7312 19.2157 17.7759 19.3237 17.7759 19.4362C17.7759 19.5488 17.7312 19.6568 17.6516 19.7364C17.572 19.816 17.464 19.8608 17.3514 19.8608Z" fill="#EFAC9C"/>
<path d="M17.1695 34.6287C15.3404 34.2271 13.6281 33.5115 12.0931 32.5416C12.1018 32.4979 12.1093 32.453 12.1162 32.4068C12.321 31.0235 11.5879 30.4584 11.187 29.6035C10.9953 29.1957 10.8797 28.7223 10.9778 28.0629C11.28 26.0202 13.0236 26.2781 13.3258 24.2354C13.6281 22.1928 11.8845 21.9349 12.1868 19.8922C12.4896 17.8495 14.2332 18.1074 14.5354 16.0648L15.7582 15.7338L16.3177 15.6738C16.199 17.1863 14.8314 17.556 15.0575 19.3839C15.3098 21.4328 17.0596 21.2173 17.3125 23.2669C17.5654 25.3158 15.8156 25.5319 16.0685 27.5814C16.1329 28.1022 16.2933 28.4769 16.5019 28.7792C17.1139 29.6672 18.1349 29.9357 18.3235 31.465C18.519 33.0512 17.5154 33.5389 17.1695 34.6287Z" fill="#656368"/>
<path d="M16.073 15.1953L16.0406 16.0621C15.7377 18.1048 13.9941 17.8469 13.6919 19.8895C13.3897 21.9322 15.1332 22.1901 14.831 24.2328C14.5287 26.2755 12.7845 26.0175 12.4823 28.0602C12.4354 28.375 12.4379 28.6472 12.4735 28.8902C12.6684 30.2247 13.8767 30.6762 13.6213 32.4041C13.5708 32.7476 13.479 33.0255 13.3603 33.2609C12.9263 33.0392 12.5035 32.7988 12.0939 32.5396C12.1026 32.4959 12.1101 32.4503 12.117 32.4041C12.3218 31.0209 11.588 30.4557 11.1871 29.6008C10.996 29.193 10.8805 28.7197 10.9779 28.0602C11.2802 26.0175 13.0237 26.2755 13.326 24.2328C13.6288 22.1901 11.8847 21.9322 12.1875 19.8895C12.4898 17.8469 14.2333 18.1048 14.5356 16.0621L16.073 15.1953Z" fill="#3D3842"/>
<path d="M28.5451 20.8383C28.4623 20.8383 28.3829 20.8054 28.3243 20.7468C28.2658 20.6883 28.2329 20.6089 28.2329 20.5261C28.2329 20.0553 27.8499 19.6723 27.3791 19.6723C27.2963 19.6723 27.2169 19.6394 27.1583 19.5809C27.0998 19.5223 27.0669 19.4429 27.0669 19.3601C27.0669 19.2773 27.0998 19.1979 27.1583 19.1393C27.2169 19.0807 27.2963 19.0479 27.3791 19.0479C28.1942 19.0479 28.8573 19.711 28.8573 20.5261C28.8573 20.5671 28.8493 20.6077 28.8336 20.6455C28.8179 20.6834 28.7949 20.7178 28.7659 20.7468C28.7369 20.7758 28.7025 20.7988 28.6646 20.8145C28.6267 20.8302 28.5861 20.8383 28.5451 20.8383Z" fill="#FFE861"/>
</svg>
