<svg width="20" height="20" viewBox="0 0 20 20" fill="none" xmlns="http://www.w3.org/2000/svg">
<g clip-path="url(#clip0_4115_2185)">
<path d="M19.2188 -0.253906V5.34766H18.7852C18.2617 3.81641 17.4766 2.65234 16.4297 1.85547C15.3828 1.05859 14.2383 0.660156 12.9961 0.660156C11.8086 0.660156 10.8203 0.996094 10.0312 1.66797C9.24219 2.33203 8.68359 3.26172 8.35547 4.45703C8.02734 5.65234 7.86328 6.87891 7.86328 8.13672C7.86328 9.66016 8.04297 10.9961 8.40234 12.1445C8.76172 13.293 9.33984 14.1367 10.1367 14.6758C10.9414 15.2148 11.8945 15.4844 12.9961 15.4844C13.3789 15.4844 13.7695 15.4453 14.168 15.3672C14.5742 15.2812 14.9883 15.1602 15.4102 15.0039V11.6992C15.4102 11.0742 15.3672 10.6719 15.2812 10.4922C15.1953 10.3047 15.0156 10.1367 14.7422 9.98828C14.4766 9.83984 14.1523 9.76562 13.7695 9.76562H13.3594V9.33203H21.082V9.76562C20.4961 9.80469 20.0859 9.88672 19.8516 10.0117C19.625 10.1289 19.4492 10.3281 19.3242 10.6094C19.2539 10.7578 19.2188 11.1211 19.2188 11.6992V15.0039C18.2031 15.457 17.1445 15.7969 16.043 16.0234C14.9492 16.2578 13.8125 16.375 12.6328 16.375C11.125 16.375 9.87109 16.1719 8.87109 15.7656C7.87891 15.3516 7 14.8125 6.23438 14.1484C5.47656 13.4766 4.88281 12.7227 4.45312 11.8867C3.90625 10.8086 3.63281 9.60156 3.63281 8.26562C3.63281 5.875 4.47266 3.85547 6.15234 2.20703C7.83203 0.558594 9.94531 -0.265625 12.4922 -0.265625C13.2812 -0.265625 13.9922 -0.203125 14.625 -0.078125C14.9688 -0.015625 15.5234 0.164063 16.2891 0.460938C17.0625 0.75 17.5195 0.894531 17.6602 0.894531C17.8789 0.894531 18.082 0.816406 18.2695 0.660156C18.457 0.496094 18.6289 0.191406 18.7852 -0.253906H19.2188Z" fill="#FAFBFC"/>
</g>
<defs>
<clipPath id="clip0_4115_2185">
<rect width="20" height="20" fill="white"/>
</clipPath>
</defs>
</svg>
