<svg width="24" height="24" viewBox="0 0 24 24" fill="none" xmlns="http://www.w3.org/2000/svg">
<path d="M20.793 9.52408C20.9863 9.71069 21.1405 9.93395 21.2466 10.1808C21.3527 10.4277 21.4085 10.6932 21.4109 10.9619C21.4132 11.2306 21.362 11.497 21.2603 11.7457C21.1585 11.9944 21.0082 12.2203 20.8182 12.4103C20.6282 12.6003 20.4022 12.7505 20.1535 12.8521C19.9047 12.9538 19.6383 13.0049 19.3696 13.0025C19.1009 13 18.8354 12.9441 18.5886 12.8379C18.3417 12.7317 18.1185 12.5775 17.932 12.3841C17.5687 12.0016 17.3693 11.4923 17.3761 10.9649C17.3829 10.4375 17.5954 9.93353 17.9684 9.56054C18.3414 9.18755 18.8454 8.975 19.3728 8.96819C19.9002 8.96138 20.4105 9.16085 20.793 9.52408Z" stroke="#FAFBFC" stroke-width="1.5" stroke-linecap="round" stroke-linejoin="round"/>
<path d="M14.203 5.91202C14.7872 6.4963 15.1155 7.28874 15.1155 8.11502C15.1155 8.94131 14.7872 9.73375 14.203 10.318C13.6187 10.9023 12.8263 11.2305 12 11.2305C11.1737 11.2305 10.3812 10.9023 9.79697 10.318C9.2127 9.73375 8.88446 8.94131 8.88446 8.11502C8.88446 7.70589 8.96505 7.30076 9.12162 6.92277C9.27818 6.54478 9.50767 6.20133 9.79697 5.91202C10.0863 5.62272 10.4297 5.39324 10.8077 5.23667C11.1857 5.0801 11.5908 4.99951 12 4.99951C12.8263 4.99951 13.6187 5.32775 14.203 5.91202Z" stroke="#FAFBFC" stroke-width="1.5" stroke-linecap="round" stroke-linejoin="round"/>
<path d="M6.06798 9.52408C6.26381 9.71005 6.42042 9.93334 6.52858 10.1808C6.63674 10.4283 6.69426 10.6949 6.69775 10.9649C6.70124 11.2349 6.65062 11.5029 6.54888 11.7531C6.44715 12.0033 6.29636 12.2305 6.10539 12.4215C5.91443 12.6125 5.68717 12.7633 5.437 12.865C5.18684 12.9667 4.91883 13.0173 4.64879 13.0138C4.37876 13.0104 4.11215 12.9528 3.86469 12.8447C3.61724 12.7365 3.39394 12.5799 3.20798 12.3841C2.84474 12.0016 2.64527 11.4923 2.65209 10.9649C2.6589 10.4375 2.87145 9.93353 3.24444 9.56054C3.61743 9.18755 4.12135 8.975 4.64879 8.96819C5.17624 8.96138 5.68548 9.16085 6.06798 9.52408Z" stroke="#FAFBFC" stroke-width="1.5" stroke-linecap="round" stroke-linejoin="round"/>
<path d="M23 19.0001V17.9041C23 17.241 22.7366 16.6051 22.2677 16.1363C21.7989 15.6674 21.163 15.4041 20.5 15.4041H19.699" stroke="#FAFBFC" stroke-width="1.5" stroke-linecap="round" stroke-linejoin="round"/>
<path d="M1 19.0001V17.9041C1 17.241 1.26339 16.6051 1.73223 16.1363C2.20107 15.6674 2.83696 15.4041 3.5 15.4041H4.301" stroke="#FAFBFC" stroke-width="1.5" stroke-linecap="round" stroke-linejoin="round"/>
<path d="M17.339 18.9999V17.3989C17.339 16.9393 17.2484 16.4842 17.0726 16.0595C16.8967 15.6349 16.6389 15.2491 16.3138 14.9241C15.9888 14.599 15.603 14.3412 15.1784 14.1653C14.7537 13.9895 14.2986 13.8989 13.839 13.8989H10.16C9.23172 13.8989 8.34148 14.2677 7.6851 14.9241C7.02872 15.5804 6.65997 16.4707 6.65997 17.3989V18.9999" stroke="#FAFBFC" stroke-width="1.5" stroke-linecap="round" stroke-linejoin="round"/>
</svg>
