<svg width="20" height="21" viewBox="0 0 20 21" fill="none" xmlns="http://www.w3.org/2000/svg">
<g clip-path="url(#clip0_2_6551)">
<path d="M6.66663 14.1419L13.3333 7.47522" stroke="#B5B9BD" stroke-width="1.5" stroke-linecap="round" stroke-linejoin="round"/>
<path d="M5.93417 17.5761L3.23167 14.8736C2.7631 14.4047 2.49992 13.769 2.5 13.1061V8.51109C2.5 7.84776 2.76333 7.21193 3.2325 6.74359L5.935 4.04109C6.16698 3.80878 6.44251 3.62451 6.7458 3.49882C7.04909 3.37312 7.37419 3.30848 7.7025 3.30859H12.2975C12.9608 3.30859 13.5967 3.57193 14.065 4.04109L16.7683 6.74443C17.2369 7.2133 17.5001 7.84906 17.5 8.51193V13.1061C17.5 13.7694 17.2367 14.4044 16.7683 14.8736L14.0658 17.5769C13.5966 18.0454 12.9606 18.3085 12.2975 18.3086H7.7025C7.37408 18.3086 7.04887 18.244 6.74546 18.1183C6.44204 17.9926 6.16636 17.8084 5.93417 17.5761Z" stroke="#B5B9BD" stroke-width="1.5" stroke-linecap="round" stroke-linejoin="round"/>
</g>
<defs>
<clipPath id="clip0_2_6551">
<rect width="20" height="20" fill="white" transform="translate(0 0.808594)"/>
</clipPath>
</defs>
</svg>
