<svg width="20" height="20" viewBox="0 0 20 20" fill="none" xmlns="http://www.w3.org/2000/svg">
<path d="M8.33333 2.5H5C4.33696 2.5 3.70107 2.76339 3.23223 3.23223C2.76339 3.70107 2.5 4.33696 2.5 5V12.5C2.5 13.163 2.76339 13.7989 3.23223 14.2678C3.70107 14.7366 4.33696 15 5 15H6.66667V17.0358C6.66673 17.123 6.69142 17.2085 6.73787 17.2823C6.78433 17.3561 6.85068 17.4153 6.92929 17.4531C7.0079 17.4909 7.09557 17.5057 7.18223 17.4959C7.2689 17.486 7.35102 17.4519 7.41917 17.3975L10.4167 15H15C15.663 15 16.2989 14.7366 16.7678 14.2678C17.2366 13.7989 17.5 13.163 17.5 12.5V11.6667" stroke="#B5B9BD" stroke-width="1.5" stroke-linecap="round" stroke-linejoin="round"/>
<path d="M14.5833 9.16675C13.8416 9.16675 13.1166 8.94682 12.4999 8.53476C11.8832 8.12271 11.4026 7.53704 11.1188 6.85181C10.8349 6.16659 10.7607 5.41259 10.9054 4.68516C11.0501 3.95773 11.4072 3.28955 11.9317 2.7651C12.4561 2.24065 13.1243 1.8835 13.8517 1.7388C14.5792 1.59411 15.3332 1.66837 16.0184 1.9522C16.7036 2.23603 17.2893 2.71668 17.7013 3.33336C18.1134 3.95005 18.3333 4.67507 18.3333 5.41675C18.3333 6.41131 17.9382 7.36514 17.235 8.0684C16.5317 8.77166 15.5779 9.16675 14.5833 9.16675Z" stroke="#B5B9BD" stroke-width="1.5" stroke-linecap="round" stroke-linejoin="round"/>
<path d="M15.4671 4.53296L13.6993 6.30073" stroke="#B5B9BD" stroke-linecap="round" stroke-linejoin="round"/>
<path d="M13.6995 4.53296L15.4673 6.30073" stroke="#B5B9BD" stroke-linecap="round" stroke-linejoin="round"/>
</svg>
