<svg width="24" height="24" viewBox="0 0 24 24" fill="none" xmlns="http://www.w3.org/2000/svg">
<path d="M18.702 18.9629L19.561 18.1039C19.8422 17.8226 20.0002 17.4412 20.0002 17.0434C20.0002 16.6457 19.8422 16.2642 19.561 15.9829L17.643 14.0649C17.2679 13.69 16.7593 13.4794 16.229 13.4794C15.6987 13.4794 15.1901 13.69 14.815 14.0649L13.312 15.5679C12.1963 15.1519 11.1832 14.5007 10.3412 13.6588C9.49919 12.8168 8.84809 11.8036 8.432 10.6879L9.93501 9.18494C10.3099 8.80988 10.5206 8.30126 10.5206 7.77094C10.5206 7.24061 10.3099 6.73199 9.93501 6.35694L8.017 4.43894C7.73571 4.15773 7.35425 3.99976 6.95651 3.99976C6.55876 3.99976 6.1773 4.15773 5.896 4.43894L5.03701 5.29794C4.37378 5.96138 4.00084 6.86084 4 7.79894C3.99856 9.40152 4.31313 10.9887 4.92571 12.4695C5.53829 13.9504 6.43687 15.296 7.57002 16.4292C8.70316 17.5625 10.0486 18.4611 11.5295 19.0738C13.0103 19.6866 14.5974 20.0013 16.2 19.9999C17.1384 19.9994 18.0383 19.6264 18.702 18.9629Z" stroke="#FAFBFC" stroke-width="1.5" stroke-linecap="round" stroke-linejoin="round"/>
</svg>
