<svg width="24" height="24" viewBox="0 0 24 24" fill="none" xmlns="http://www.w3.org/2000/svg">
<path d="M16 10.2921L19.475 8.15012C19.6266 8.05663 19.8003 8.0053 19.9784 8.00145C20.1564 7.99761 20.3323 8.04137 20.4877 8.12823C20.6432 8.21508 20.7726 8.34188 20.8627 8.49551C20.9528 8.64914 21.0002 8.82404 21 9.00212V15.9981C21.0002 16.1762 20.9528 16.3511 20.8627 16.5047C20.7726 16.6584 20.6432 16.7852 20.4877 16.872C20.3323 16.9589 20.1564 17.0026 19.9784 16.9988C19.8003 16.9949 19.6266 16.9436 19.475 16.8501L16 14.7071" stroke="#FAFBFC" stroke-width="1.5" stroke-linecap="round" stroke-linejoin="round"/>
<path d="M13 6H6C4.34315 6 3 7.34315 3 9V16C3 17.6569 4.34315 19 6 19H13C14.6569 19 16 17.6569 16 16V9C16 7.34315 14.6569 6 13 6Z" stroke="#FAFBFC" stroke-width="1.5" stroke-linecap="round" stroke-linejoin="round"/>
</svg>
