<svg width="20" height="20" viewBox="0 0 20 20" fill="none" xmlns="http://www.w3.org/2000/svg">
<path d="M10 10.9333V7.81665" stroke="#B5B9BD" stroke-width="1.5" stroke-linecap="round" stroke-linejoin="round"/>
<path d="M9.99919 13.4375C9.95802 13.4377 9.91782 13.45 9.88367 13.473C9.84952 13.496 9.82295 13.5286 9.80731 13.5667C9.79167 13.6048 9.78766 13.6466 9.79579 13.687C9.80392 13.7273 9.82383 13.7644 9.853 13.7934C9.88217 13.8225 9.91929 13.8423 9.95968 13.8502C10.0001 13.8582 10.0419 13.854 10.0799 13.8382C10.118 13.8224 10.1504 13.7957 10.1733 13.7615C10.1962 13.7272 10.2084 13.687 10.2084 13.6458C10.2084 13.6184 10.2029 13.5912 10.1924 13.5659C10.1819 13.5406 10.1665 13.5176 10.147 13.4982C10.1276 13.4789 10.1045 13.4635 10.0792 13.4531C10.0538 13.4427 10.0266 13.4374 9.99919 13.4375Z" stroke="#B5B9BD" stroke-width="1.5" stroke-linecap="round" stroke-linejoin="round"/>
<path d="M11.6908 3.44916L18.0733 14.6192C18.815 15.9175 17.8775 17.5333 16.3825 17.5333H3.61751C2.12167 17.5333 1.18417 15.9175 1.92667 14.6192L8.30917 3.44916C9.05667 2.13999 10.9433 2.13999 11.6908 3.44916Z" stroke="#B5B9BD" stroke-width="1.5" stroke-linecap="round" stroke-linejoin="round"/>
</svg>
