<svg width="20" height="20" viewBox="0 0 20 20" fill="none" xmlns="http://www.w3.org/2000/svg">
<g clip-path="url(#clip0_4115_2158)">
<path d="M18.3327 11.6654C19.2532 11.6654 19.9993 10.9192 19.9993 9.9987C19.9993 9.07822 19.2532 8.33203 18.3327 8.33203C17.4122 8.33203 16.666 9.07822 16.666 9.9987C16.666 10.9192 17.4122 11.6654 18.3327 11.6654Z" fill="#FAFBFC"/>
<path d="M19.0714 5.72276L18.6539 4.9986C17.5536 3.09165 15.8548 1.60108 13.821 0.758131C11.7872 -0.0848214 9.53205 -0.233041 7.40539 0.336466C5.27874 0.905972 3.39946 2.16137 2.05909 3.90791C0.718725 5.65445 -0.0078125 7.79451 -0.0078125 9.9961C-0.0078125 12.1977 0.718725 14.3377 2.05909 16.0843C3.39946 17.8308 5.27874 19.0862 7.40539 19.6557C9.53205 20.2252 11.7872 20.077 13.821 19.2341C15.8548 18.3911 17.5536 16.9005 18.6539 14.9936L19.0706 14.2719L11.6664 9.9986L19.0714 5.72276ZM12.0831 6.66526C11.8358 6.66526 11.5941 6.59195 11.3886 6.4546C11.183 6.31725 11.0228 6.12203 10.9282 5.89362C10.8336 5.66521 10.8088 5.41388 10.8571 5.1714C10.9053 4.92893 11.0244 4.7062 11.1992 4.53138C11.374 4.35656 11.5967 4.23751 11.8392 4.18928C12.0817 4.14105 12.333 4.16581 12.5614 4.26042C12.7898 4.35502 12.985 4.51524 13.1224 4.7208C13.2597 4.92636 13.3331 5.16804 13.3331 5.41526C13.3331 5.74679 13.2014 6.06473 12.9669 6.29915C12.7325 6.53357 12.4146 6.66526 12.0831 6.66526Z" fill="#FAFBFC"/>
</g>
<defs>
<clipPath id="clip0_4115_2158">
<rect width="20" height="20" fill="white"/>
</clipPath>
</defs>
</svg>
