<svg width="24" height="24" viewBox="0 0 24 24" fill="none" xmlns="http://www.w3.org/2000/svg">
<path d="M20.707 4.70696L19.293 3.29296C19.2002 3.20001 19.09 3.12627 18.9687 3.07596C18.8474 3.02565 18.7173 2.99976 18.586 2.99976C18.4547 2.99976 18.3246 3.02565 18.2033 3.07596C18.082 3.12627 17.9718 3.20001 17.879 3.29296L7.293 13.879C7.2 13.9717 7.12624 14.0819 7.07596 14.2032C7.02568 14.3246 6.99986 14.4546 7 14.586V17H9.414C9.679 17 9.934 16.895 10.121 16.707L20.707 6.12096C20.7999 6.02817 20.8737 5.91796 20.924 5.79665C20.9743 5.67533 21.0002 5.54529 21.0002 5.41396C21.0002 5.28262 20.9743 5.15258 20.924 5.03126C20.8737 4.90995 20.7999 4.79974 20.707 4.70696Z" stroke="#FAFBFC" stroke-width="1.5" stroke-linecap="round" stroke-linejoin="round"/>
<path d="M18.91 7.90984L16.09 5.08984" stroke="#FAFBFC" stroke-width="1.5" stroke-linecap="round" stroke-linejoin="round"/>
<path d="M21 11V19C21 19.5304 20.7893 20.0391 20.4142 20.4142C20.0391 20.7893 19.5304 21 19 21H5C4.46957 21 3.96086 20.7893 3.58579 20.4142C3.21071 20.0391 3 19.5304 3 19V5C3 4.46957 3.21071 3.96086 3.58579 3.58579C3.96086 3.21071 4.46957 3 5 3H13" stroke="#FAFBFC" stroke-width="1.5" stroke-linecap="round" stroke-linejoin="round"/>
</svg>
