<svg width="24" height="24" viewBox="0 0 24 24" fill="none" xmlns="http://www.w3.org/2000/svg">
<circle cx="12" cy="12" r="12" fill="#2B2E30"/>
<g clip-path="url(#clip0_2_8118)">
<path d="M17.9999 12C17.9999 12.1978 17.9412 12.3911 17.8313 12.5556C17.7215 12.72 17.5653 12.8482 17.3826 12.9239C17.1998 12.9996 16.9988 13.0194 16.8048 12.9808C16.6108 12.9422 16.4326 12.847 16.2928 12.7071C16.1529 12.5673 16.0577 12.3891 16.0191 12.1951C15.9805 12.0011 16.0003 11.8 16.076 11.6173C16.1517 11.4346 16.2799 11.2784 16.4443 11.1685C16.6088 11.0586 16.8021 11 16.9999 11C17.2651 11 17.5194 11.1054 17.707 11.2929C17.8945 11.4804 17.9999 11.7348 17.9999 12Z" fill="#B5B9BD" stroke="#B5B9BD" stroke-width="0.5" stroke-linecap="round" stroke-linejoin="round"/>
<path d="M12.9999 12C12.9999 12.1978 12.9412 12.3911 12.8313 12.5556C12.7215 12.72 12.5653 12.8482 12.3826 12.9239C12.1998 12.9996 11.9988 13.0194 11.8048 12.9808C11.6108 12.9422 11.4326 12.847 11.2928 12.7071C11.1529 12.5673 11.0577 12.3891 11.0191 12.1951C10.9805 12.0011 11.0003 11.8 11.076 11.6173C11.1517 11.4346 11.2799 11.2784 11.4443 11.1685C11.6088 11.0586 11.8021 11 11.9999 11C12.2651 11 12.5194 11.1054 12.707 11.2929C12.8945 11.4804 12.9999 11.7348 12.9999 12Z" fill="#B5B9BD" stroke="#B5B9BD" stroke-width="0.5" stroke-linecap="round" stroke-linejoin="round"/>
<path d="M7.99988 12C7.99988 12.1978 7.94123 12.3911 7.83135 12.5556C7.72147 12.72 7.56529 12.8482 7.38256 12.9239C7.19983 12.9996 6.99877 13.0194 6.80479 12.9808C6.61081 12.9422 6.43262 12.847 6.29277 12.7071C6.15292 12.5673 6.05768 12.3891 6.01909 12.1951C5.98051 12.0011 6.00031 11.8 6.076 11.6173C6.15169 11.4346 6.27986 11.2784 6.44431 11.1685C6.60876 11.0586 6.8021 11 6.99988 11C7.26509 11 7.51945 11.1054 7.70699 11.2929C7.89452 11.4804 7.99988 11.7348 7.99988 12Z" fill="#B5B9BD" stroke="#B5B9BD" stroke-width="0.5" stroke-linecap="round" stroke-linejoin="round"/>
</g>
<defs>
<clipPath id="clip0_2_8118">
<rect width="20" height="20" fill="white" transform="translate(2 2)"/>
</clipPath>
</defs>
</svg>
