<svg width="24" height="24" viewBox="0 0 24 24" fill="none" xmlns="http://www.w3.org/2000/svg">
<circle cx="12" cy="12" r="12" fill="#2B2E30"/>
<g clip-path="url(#clip0_2_8109)">
<path d="M11.3622 9.88376C9.72333 10.0687 8.20988 10.8506 7.11066 12.0802C6.01143 13.3098 5.40338 14.9011 5.40253 16.5504V16.9754C6.13124 16.0976 7.04107 15.3876 8.06972 14.8942C9.09837 14.4007 10.2215 14.1354 11.3622 14.1164V16.3574C11.3622 16.5168 11.407 16.673 11.4915 16.8081C11.5761 16.9432 11.6971 17.0518 11.8405 17.1214C11.9839 17.191 12.144 17.2187 12.3025 17.2015C12.461 17.1843 12.6114 17.1228 12.7366 17.024L18.2852 12.6421C18.3824 12.5655 18.461 12.4678 18.515 12.3564C18.5691 12.245 18.5971 12.1228 18.5971 11.999C18.5971 11.8752 18.5691 11.7531 18.515 11.6417C18.461 11.5303 18.3824 11.4326 18.2852 11.356L12.7366 6.97474C12.6114 6.87578 12.4609 6.8141 12.3023 6.79677C12.1438 6.77944 11.9835 6.80717 11.8399 6.87677C11.6964 6.94637 11.5754 7.05502 11.4908 7.19027C11.4061 7.32551 11.3614 7.48187 11.3616 7.6414L11.3622 9.88376Z" stroke="#B5B9BD" stroke-width="1.5" stroke-linecap="round" stroke-linejoin="round"/>
</g>
<defs>
<clipPath id="clip0_2_8109">
<rect width="16.6667" height="16.6667" fill="white" transform="translate(3.66669 3.66675)"/>
</clipPath>
</defs>
</svg>
