<svg width="24" height="24" viewBox="0 0 24 24" fill="none" xmlns="http://www.w3.org/2000/svg">
<circle cx="12" cy="12" r="12" fill="#2B2E30"/>
<g clip-path="url(#clip0_2_8098)">
<path d="M17.3033 6.69671C17.9998 7.39316 18.5522 8.21996 18.9291 9.1299C19.306 10.0399 19.5 11.0151 19.5 12C19.5 12.985 19.306 13.9602 18.9291 14.8702C18.5522 15.7801 17.9998 16.6069 17.3033 17.3034C16.6069 17.9998 15.7801 18.5523 14.8701 18.9292C13.9602 19.3061 12.9849 19.5001 12 19.5001C11.0151 19.5001 10.0398 19.3061 9.12984 18.9292C8.21989 18.5523 7.3931 17.9998 6.69665 17.3034C5.29012 15.8968 4.49994 13.9892 4.49994 12C4.49994 10.0109 5.29012 8.10324 6.69665 6.69671C8.10318 5.29018 10.0108 4.5 12 4.5C13.9891 4.5 15.8968 5.29018 17.3033 6.69671Z" stroke="#B5B9BD" stroke-width="1.5" stroke-linecap="round" stroke-linejoin="round"/>
<path d="M12 16.1667C13.3892 16.1667 14.5 15.0559 14.5 13.6667H9.5C9.5 15.0559 10.6108 16.1667 12 16.1667Z" stroke="#B5B9BD" stroke-width="1.5" stroke-linecap="round" stroke-linejoin="round"/>
<path d="M9.08331 9.5V10.3333" stroke="#B5B9BD" stroke-width="1.5" stroke-linecap="round" stroke-linejoin="round"/>
<path d="M14.9167 9.5V10.3333" stroke="#B5B9BD" stroke-width="1.5" stroke-linecap="round" stroke-linejoin="round"/>
</g>
<defs>
<clipPath id="clip0_2_8098">
<rect width="20" height="20" fill="white" transform="translate(2 2)"/>
</clipPath>
</defs>
</svg>
