<svg width="41" height="40" viewBox="0 0 41 40" fill="none" xmlns="http://www.w3.org/2000/svg">
<circle cx="20.5" cy="20" r="18.5" fill="#141517" stroke="#141517" stroke-width="3"/>
<path d="M25.7072 17.291C26.0977 17.6815 26.0977 18.3147 25.7072 18.7052C25.3167 19.0957 24.6835 19.0957 24.293 18.7052L21.502 15.9143V23.0005C21.502 23.5528 21.0543 24.0005 20.502 24.0005C19.9498 24.0005 19.502 23.5528 19.502 23.0005V15.9142L16.7091 18.7072C16.3185 19.0977 15.6854 19.0977 15.2948 18.7072C14.9043 18.3166 14.9043 17.6835 15.2948 17.2929L19.7949 12.7929C19.9824 12.6054 20.2368 12.5 20.502 12.5C20.7672 12.5 21.0216 12.6054 21.2091 12.7929L25.7072 17.291Z" fill="#FAFBFC"/>
<path fill-rule="evenodd" clip-rule="evenodd" d="M12.5 22C13.0523 22 13.5 22.4477 13.5 23V25C13.5 25.5523 13.9477 26 14.5 26H26.5C27.0523 26 27.5 25.5523 27.5 25V23C27.5 22.4477 27.9477 22 28.5 22C29.0523 22 29.5 22.4477 29.5 23V25C29.5 26.6569 28.1569 28 26.5 28H14.5C12.8431 28 11.5 26.6569 11.5 25V23C11.5 22.4477 11.9477 22 12.5 22Z" fill="#FAFBFC"/>
</svg>
